<?xml version="1.0" encoding="UTF-8"?>
<svg xmlns="http://www.w3.org/2000/svg" width="640" height="640" viewBox="0 0 640 640" role="img" aria-label="Vectorized logo">
  <path d="M 146 114 L 146 473 L 150 488 L 160 505 L 175 520 L 188 529 L 216 542 L 229 546 L 248 550 L 266 552 L 293 553 L 309 556 L 317 563 L 321 571 L 323 578 L 323 575 L 327 565 L 333 558 L 337 556 L 352 553 L 390 551 L 416 546 L 444 536 L 462 526 L 479 512 L 490 498 L 495 488 L 498 479 L 500 466 L 499 114 Z M 323 146 L 330 165 L 333 183 L 338 179 L 348 175 L 353 174 L 368 175 L 353 186 L 343 196 L 341 200 L 356 204 L 367 209 L 379 217 L 390 228 L 395 235 L 400 246 L 405 269 L 405 295 L 404 301 L 400 314 L 391 330 L 382 340 L 367 351 L 346 360 L 332 362 L 332 379 L 337 380 L 339 388 L 339 391 L 332 391 L 332 426 L 343 412 L 364 391 L 382 378 L 394 372 L 406 368 L 417 366 L 433 367 L 419 373 L 405 382 L 396 389 L 374 412 L 358 427 L 346 435 L 333 441 L 331 514 L 312 488 L 311 441 L 297 435 L 285 427 L 249 390 L 239 382 L 230 376 L 210 367 L 227 366 L 247 371 L 260 377 L 282 393 L 299 410 L 312 426 L 312 391 L 307 390 L 305 385 L 305 379 L 312 379 L 312 363 L 314 361 L 328 357 L 346 347 L 363 331 L 369 322 L 375 309 L 379 290 L 379 271 L 373 248 L 365 233 L 356 223 L 345 216 L 331 212 L 315 212 L 300 216 L 288 223 L 279 232 L 271 246 L 268 255 L 266 265 L 265 279 L 266 294 L 268 303 L 275 320 L 282 330 L 290 338 L 300 345 L 311 350 L 317 351 L 321 353 L 313 356 L 294 357 L 282 354 L 269 347 L 264 343 L 252 330 L 244 316 L 240 304 L 238 292 L 238 270 L 241 254 L 248 237 L 255 227 L 269 214 L 281 207 L 304 199 L 292 186 L 276 175 L 292 174 L 300 176 L 308 180 L 311 183 L 315 164 L 320 150 Z M 319 256 L 326 256 L 332 261 L 333 264 L 332 272 L 326 277 L 319 277 L 314 273 L 312 269 L 312 264 L 314 260 Z M 297 271 L 301 271 L 305 273 L 309 279 L 309 285 L 307 289 L 305 291 L 300 293 L 297 293 L 293 291 L 290 288 L 288 283 L 290 276 Z M 354 301 L 361 307 L 362 314 L 357 321 L 351 323 L 347 322 L 342 317 L 341 315 L 341 309 L 345 303 L 349 301 Z M 344 271 L 351 272 L 355 276 L 357 280 L 357 284 L 355 288 L 351 292 L 348 293 L 342 292 L 336 285 L 336 279 L 338 275 Z M 293 241 L 296 241 L 300 243 L 304 248 L 304 256 L 303 258 L 296 263 L 292 263 L 288 261 L 284 256 L 284 248 L 288 243 Z M 323 317 L 328 319 L 332 323 L 333 325 L 333 331 L 329 337 L 325 339 L 320 339 L 313 333 L 312 326 L 317 319 Z M 321 225 L 327 226 L 333 233 L 333 239 L 332 241 L 327 246 L 324 247 L 318 246 L 313 241 L 312 238 L 313 231 L 318 226 Z M 353 241 L 357 243 L 362 250 L 362 254 L 360 258 L 356 262 L 353 263 L 347 262 L 341 255 L 341 249 L 342 247 L 347 242 Z M 291 301 L 297 301 L 299 302 L 304 308 L 304 316 L 301 320 L 294 323 L 287 320 L 284 316 L 284 308 L 285 306 Z M 320 287 L 325 287 L 329 289 L 333 295 L 332 303 L 326 308 L 319 308 L 317 307 L 312 300 L 313 293 Z" fill="#012568"/>
  <path d="M 323 147 L 321 150 L 316 164 L 313 180 L 311 184 L 308 181 L 300 177 L 292 175 L 277 175 L 292 185 L 304 197 L 305 200 L 303 202 L 299 202 L 286 206 L 272 213 L 264 219 L 256 227 L 249 237 L 242 254 L 239 270 L 239 292 L 241 304 L 245 316 L 251 327 L 256 334 L 269 346 L 282 353 L 294 356 L 306 356 L 320 353 L 306 349 L 294 342 L 281 330 L 274 320 L 270 312 L 265 294 L 264 282 L 265 265 L 267 255 L 274 238 L 278 232 L 288 222 L 300 215 L 309 212 L 315 211 L 331 211 L 345 215 L 356 222 L 366 233 L 374 248 L 380 271 L 380 290 L 376 309 L 370 322 L 364 331 L 346 348 L 328 358 L 313 363 L 312 380 L 305 380 L 308 390 L 313 391 L 312 427 L 298 410 L 282 394 L 260 378 L 247 372 L 227 367 L 211 367 L 216 368 L 230 375 L 239 381 L 249 389 L 285 426 L 297 434 L 309 439 L 313 442 L 313 488 L 331 513 L 331 442 L 333 440 L 346 434 L 358 426 L 364 421 L 396 388 L 405 381 L 419 372 L 432 367 L 417 367 L 406 369 L 394 373 L 382 379 L 364 392 L 344 412 L 332 427 L 332 390 L 339 390 L 336 380 L 331 379 L 332 361 L 346 359 L 367 350 L 382 339 L 390 330 L 399 314 L 403 301 L 404 295 L 404 269 L 399 246 L 394 235 L 389 228 L 379 218 L 367 210 L 356 205 L 347 202 L 343 202 L 341 201 L 340 199 L 353 185 L 367 175 L 353 175 L 348 176 L 338 180 L 333 184 L 329 165 Z M 344 272 L 339 275 L 337 279 L 337 285 L 342 291 L 348 292 L 351 291 L 354 288 L 356 284 L 356 280 L 351 273 Z M 297 272 L 291 276 L 289 283 L 291 288 L 293 290 L 297 292 L 300 292 L 306 289 L 308 285 L 308 279 L 305 274 L 301 272 Z M 319 257 L 315 260 L 313 264 L 313 269 L 315 273 L 319 276 L 326 276 L 331 272 L 332 269 L 331 261 L 326 257 Z M 354 302 L 349 302 L 345 304 L 342 309 L 342 315 L 347 321 L 351 322 L 355 321 L 359 318 L 361 314 L 360 307 Z M 321 226 L 318 227 L 314 231 L 313 238 L 314 241 L 318 245 L 324 246 L 327 245 L 331 241 L 332 239 L 332 233 L 327 227 Z M 323 318 L 317 320 L 313 326 L 314 333 L 320 338 L 325 338 L 329 336 L 332 331 L 332 325 L 328 320 Z M 293 242 L 288 244 L 285 248 L 285 256 L 288 260 L 292 262 L 296 262 L 302 258 L 303 256 L 303 248 L 300 244 L 296 242 Z M 291 302 L 289 303 L 285 308 L 285 316 L 287 319 L 290 321 L 294 322 L 298 321 L 301 319 L 303 316 L 303 308 L 299 303 L 297 302 Z M 347 243 L 343 247 L 342 249 L 342 255 L 347 261 L 353 262 L 356 261 L 359 258 L 361 254 L 361 250 L 357 244 L 353 242 Z M 320 288 L 314 293 L 313 300 L 317 306 L 319 307 L 326 307 L 331 303 L 332 295 L 329 290 L 325 288 Z M 500 467 L 499 479 L 496 488 L 491 498 L 480 512 L 462 527 L 452 533 L 437 540 L 408 549 L 379 553 L 352 554 L 337 557 L 330 562 L 326 569 L 324 578 L 322 578 L 324 579 L 325 573 L 332 561 L 338 557 L 354 554 L 380 553 L 405 550 L 433 542 L 443 538 L 460 529 L 474 519 L 483 510 L 491 499 L 498 483 L 500 474 Z M 160 506 L 166 513 L 176 522 L 193 533 L 213 542 L 228 546 L 216 543 L 188 530 L 175 521 Z M 295 555 L 301 555 L 308 557 L 312 559 L 317 565 L 316 563 L 309 557 L 301 555 Z" fill="#FFFFFF" fill-rule="evenodd"/>
</svg>
